
<svg xmlns="http://www.w3.org/2000/svg" version="1.1" xmlns:xlink="http://www.w3.org/1999/xlink" preserveAspectRatio="none" x="0px" y="0px" viewBox="0 0 100 100">
<defs>
<g id="Layer3_0_FILL">
<path fill="#7F3303" stroke="none" d="
M 76 29.5
L 76.7 22.5 25.4 22.5 26.05 29.5 26.15 30.5 28.85 58.55 29.75 68.05 29.9 69.55 31.65 87.65
Q 31.65 93.4 37.4 93.4
L 64.55 93.4
Q 70.3 93.4 70.3 87.65
L 72.05 69.55 72.2 68.05 73.15 58.55 75.9 30.5 76 29.5 Z"/>
</g>

<g id="Layer2_0_FILL">
<path fill="#F4F4F4" stroke="none" d="
M 69.8 14.65
Q 69.55 13.45 68.15 12.5 67.1 11.8 64.4 10.7 62.95 10.1 61.3 9.7 60.5 8.15 58.75 6.95 55.7 4.75 51.2 4.75 46.8 4.75 43.75 6.95 42.05 8.15 41.25 9.65 39.55 10.1 38 10.7 35.25 11.8 34.15 12.6 32.8 13.6 32.6 14.9 30.35 15.85 29.05 17.3 27.85 18.65 27.85 20 27.85 20.9 28.45 21.75
L 74.55 21.75
Q 75.15 20.9 75.15 20 75.15 18.55 73.85 17.15 72.4 15.6 69.8 14.65 Z"/>
</g>

<path id="Layer1_0_1_STROKES" stroke="#FFFFFF" stroke-width="5" stroke-linejoin="round" stroke-linecap="round" fill="none" d="
M 73.05 59.55
L 70.3 87.65
Q 70.3 93.4 64.55 93.4
L 37.4 93.4
Q 31.65 93.4 31.65 87.65
L 28.95 59.55 25.4 22.5 76.7 22.5 73.05 59.55 Z"/>
</defs>

<g transform="matrix( 1, 0, 0, 1, 0,0) ">
<use xlink:href="#Layer3_0_FILL"/>
</g>

<g transform="matrix( 1, 0, 0, 1, 0,0) ">
<use xlink:href="#Layer2_0_FILL"/>
</g>

<g transform="matrix( 1, 0, 0, 1, 0,0) ">
<use xlink:href="#Layer1_0_1_STROKES"/>
</g>
</svg>
