
<svg xmlns="http://www.w3.org/2000/svg" version="1.1" xmlns:xlink="http://www.w3.org/1999/xlink" preserveAspectRatio="none" x="0px" y="0px" viewBox="0 0 100 100">
<defs>
<g id="Layer2_0_FILL">
<path fill="#3D1A03" stroke="none" d="
M 28.95 59.55
L 29.55 66.05 30.3 73.5 31.65 87.65
Q 31.65 93.4 37.4 93.4
L 64.55 93.4
Q 70.3 93.4 70.3 87.65
L 71.7 73.5 72.4 66.05 73.05 59.55 73.3 57 28.7 57 28.95 59.55 Z"/>

<path fill="#7F3303" stroke="none" d="
M 28.6 56.05
L 28.7 57 73.3 57 73.4 56.05 76.7 22.5 25.4 22.5 28.6 56.05 Z"/>
</g>

<path id="Layer1_0_1_STROKES" stroke="#FFFFFF" stroke-width="5" stroke-linejoin="round" stroke-linecap="round" fill="none" d="
M 76.7 22.5
L 70.3 87.65
Q 70.3 93.4 64.55 93.4
L 37.4 93.4
Q 31.65 93.4 31.65 87.65
L 25.4 22.5 76.7 22.5 Z"/>
</defs>

<g transform="matrix( 1, 0, 0, 1, 0,0) ">
<use xlink:href="#Layer2_0_FILL"/>
</g>

<g transform="matrix( 1, 0, 0, 1, 0,0) ">
<use xlink:href="#Layer1_0_1_STROKES"/>
</g>
</svg>
