<svg width="100" height="100" xmlns="http://www.w3.org/2000/svg" xmlns:xlink="http://www.w3.org/1999/xlink" preserveAspectRatio="none">
 <defs>
  <style type="text/css">
   <![CDATA[
        #ingredient:hover { 
            fill: #111;
        }
    ]]>
  </style>
 </defs>
 <g>
  <title>background</title>
  <rect fill="#7f003f" id="canvas_background" height="102" width="102" y="-1" x="-1"/>
 </g>
 <g>
  <title>Layer 1</title>
  <g id="Layer2_0_FILL">
   <path d="m28.6,56.05l0.35,3.5l0.6,6.5l42.85,0l0.65,-6.5l0.35,-3.5l3.3,-33.55l-51.3,0l3.2,33.55z" fill="#03A4CA" id="ingredient"/>
   <path d="m29.55,66.05l2.1,21.6q0,5.75 5.75,5.75l27.15,0q5.75,0 5.75,-5.75l2.1,-21.6l-42.85,0z" fill="#7F3303" id="ingredient"/>
  </g>
  <path d="m76.7,22.5l-6.4,65.15q0,5.75 -5.75,5.75l-27.15,0q-5.75,0 -5.75,-5.75l-6.25,-65.15l51.3,0z" fill="none" stroke-linecap="round" stroke-linejoin="round" stroke-width="5" stroke="#FFFFFF" id="Layer1_0_1_STROKES"/>
  <g id="svg_1">
   <use id="svg_2" xlink:href="#Layer2_0_FILL"/>
  </g>
  <g id="svg_3">
   <use fill="#7f003f" id="svg_4" xlink:href="#Layer1_0_1_STROKES"/>
  </g>
 </g>
</svg>