
<svg xmlns="http://www.w3.org/2000/svg" version="1.1" xmlns:xlink="http://www.w3.org/1999/xlink" preserveAspectRatio="none" x="0px" y="0px" viewBox="0 0 100 100">
<defs>

<g id="Layer2_0_FILL">
<path fill="#FEEDA6" stroke="none" d="
M 75.15 20
Q 75.15 18.55 73.85 17.15 72.4 15.6 69.8 14.65 69.55 13.45 68.15 12.5 67.1 11.8 64.4 10.7 62.95 10.1 61.3 9.7 60.5 8.15 58.75 6.95 55.7 4.75 51.2 4.75 46.8 4.75 43.75 6.95 42.05 8.15 41.25 9.65 39.55 10.1 38 10.7 35.25 11.8 34.15 12.6 32.8 13.6 32.6 14.9 30.35 15.85 29.05 17.3 27.85 18.65 27.85 20 27.85 20.9 28.45 21.75
L 74.55 21.75
Q 75.15 20.9 75.15 20 Z"/>
</g>

</defs>

<g transform="matrix( 1, 0, 0, 1, 0,0) ">
<use xlink:href="#Layer3_0_FILL"/>
</g>

<g transform="matrix( 1, 0, 0, 1, 0,0) ">
<use xlink:href="#Layer2_0_FILL"/>
</g>

<g transform="matrix( 1, 0, 0, 1, 0,0) ">
<use xlink:href="#Layer1_0_1_STROKES"/>
</g>
</svg>
